<svg width="17" height="25" viewBox="0 0 17 25" fill="none" xmlns="http://www.w3.org/2000/svg">
<path d="M8.76923 9.54583C8.83736 9.51858 8.91336 9.51858 8.98149 9.54583L12.6954 11.0316C12.8039 11.075 12.875 11.1801 12.875 11.2969C12.875 11.307 12.8745 11.3171 12.8734 11.3271C12.8735 11.3307 12.8736 11.3343 12.8736 11.338V15.7358C12.8736 15.8521 12.8031 15.9569 12.6952 16.0006L8.98537 17.5044C8.94805 17.5195 8.9094 17.5262 8.87156 17.5253C8.83494 17.5254 8.79815 17.5185 8.76323 17.5044L5.05335 16.0006C4.94554 15.9569 4.875 15.8521 4.875 15.7358V11.338C4.875 11.3291 4.87541 11.3202 4.87621 11.3115C4.87597 11.3066 4.87584 11.3018 4.87584 11.2969C4.87583 11.1801 4.94694 11.075 5.05539 11.0316L8.76923 9.54583ZM9.15662 16.8185L12.3023 15.5434V11.7192L9.15995 12.9755L9.15662 16.8185ZM5.44637 11.7184V15.5434L8.58525 16.8158L8.58858 12.9747L5.44637 11.7184ZM8.87536 10.1187L5.93074 11.2968L8.87535 12.4741L11.8201 11.2968L8.87536 10.1187Z" fill="#413D56"/>
<path d="M8.28289 24.0494C7.17954 24.0382 6.08923 23.7628 5.07625 23.2397C4.06326 22.7165 3.1481 21.9561 2.38471 21.0032C0.834805 19.0585 -0.0204837 16.468 0.000372665 13.7814C0.021229 11.0949 0.916589 8.52377 2.49642 6.61382L7.67967 0.401141C7.78068 0.271088 7.90359 0.168122 8.0403 0.0990325C8.17701 0.0299433 8.32442 -0.00369963 8.47279 0.000322467C8.62138 0.00279323 8.76807 0.040698 8.90425 0.111817C9.04044 0.182936 9.1634 0.285839 9.26592 0.414502L14.3598 6.72071C15.9112 8.66368 16.7685 11.2532 16.7497 13.9398C16.7309 16.6263 15.8376 19.1984 14.2593 21.1101C13.4819 22.0593 12.5512 22.8094 11.5238 23.3147C10.4963 23.82 9.39367 24.07 8.28289 24.0494ZM8.42811 3.24695L4.08267 8.48431C2.90933 9.90346 2.24478 11.8138 2.23018 13.8096C2.21557 15.8053 2.85207 17.7293 4.00448 19.1728C4.56096 19.8593 5.22544 20.4075 5.95968 20.7859C6.69393 21.1642 7.48347 21.3652 8.28289 21.3773C9.09242 21.3853 9.89508 21.1991 10.6434 20.8296C11.3917 20.4601 12.0704 19.9149 12.6395 19.2262C13.8166 17.8087 14.4827 15.8962 14.4952 13.8983C14.5078 11.9005 13.8657 9.97628 12.7065 8.53775L8.42811 3.24695Z" fill="#524E4E"/>
</svg>
