<svg width="21" height="25" viewBox="0 0 21 25" fill="none" xmlns="http://www.w3.org/2000/svg">
<path d="M10.0845 24.4193C8.74115 24.4078 7.41369 24.1283 6.18038 23.5971C4.94706 23.0658 3.83284 22.2937 2.90341 21.3262C1.01638 19.3516 -0.024939 16.7212 0.000453722 13.9933C0.0258465 11.2655 1.11595 8.65485 3.03941 6.71553L9.35006 0.40731C9.47305 0.275257 9.62269 0.170707 9.78914 0.100555C9.95559 0.0304038 10.1351 -0.00375653 10.3157 0.000327426C10.4966 0.00283619 10.6752 0.0413238 10.841 0.113536C11.0068 0.185749 11.1565 0.290235 11.2813 0.420876L17.4832 6.82406C19.372 8.79691 20.4158 11.4263 20.3929 14.1542C20.3701 16.882 19.2824 19.4936 17.3608 21.4347C16.4143 22.3985 15.2812 23.1601 14.0303 23.6732C12.7794 24.1863 11.4369 24.4401 10.0845 24.4193ZM10.2613 3.29688L4.97069 8.61478C3.54213 10.0558 2.73304 11.9955 2.71526 14.0219C2.69748 16.0484 3.47243 18.002 4.87549 19.4676C5.55301 20.1647 6.36201 20.7214 7.25597 21.1055C8.14992 21.4897 9.11119 21.6938 10.0845 21.706C11.0701 21.7142 12.0474 21.5251 12.9584 21.1499C13.8695 20.7748 14.6959 20.2212 15.3887 19.5219C16.8218 18.0825 17.6328 16.1406 17.6481 14.1121C17.6633 12.0835 16.8816 10.1297 15.4703 8.66905L10.2613 3.29688Z" fill="#413D56"/>
<path d="M10.1477 17.9443C9.53735 17.9402 8.93419 17.8375 8.37379 17.6423C7.8134 17.4472 7.30713 17.1635 6.88481 16.8081C6.02739 16.0827 5.55424 15.1164 5.56577 14.1143C5.57731 13.1122 6.07263 12.1531 6.94661 11.4407L9.81403 9.12328C9.86991 9.07477 9.93791 9.03637 10.0135 9.01059C10.0892 8.98482 10.1707 8.97227 10.2528 8.97377C10.335 8.9747 10.4161 8.98884 10.4915 9.01536C10.5668 9.04189 10.6348 9.08028 10.6916 9.12827L13.5095 11.4806C14.3678 12.2053 14.842 13.1712 14.8317 14.1733C14.8213 15.1755 14.3271 16.1349 13.4539 16.8479C13.0239 17.202 12.509 17.4818 11.9406 17.6703C11.3722 17.8588 10.7622 17.952 10.1477 17.9443ZM10.2281 10.1848L7.82414 12.1384C7.17503 12.6678 6.8074 13.3803 6.79932 14.1248C6.79124 14.8692 7.14336 15.5869 7.78088 16.1253C8.08873 16.3814 8.45633 16.5859 8.86252 16.727C9.26871 16.8681 9.70549 16.9431 10.1477 16.9476C10.5956 16.9506 11.0396 16.8811 11.4536 16.7433C11.8676 16.6055 12.243 16.4021 12.5579 16.1452C13.209 15.6165 13.5775 14.9031 13.5845 14.1579C13.5914 13.4127 13.2362 12.6949 12.5949 12.1583L10.2281 10.1848Z" fill="#413D56"/>
</svg>
