<svg width="143" height="86" viewBox="0 0 143 86" fill="none" xmlns="http://www.w3.org/2000/svg">
<path d="M60.0675 18.3905C59.7866 18.6178 59.4195 18.7364 59.0313 18.694C57.8061 18.5613 56.7756 18.135 56.0542 17.4617C55.2906 16.7488 54.9137 15.7917 55.0167 14.8332C55.1974 13.1506 56.8857 11.6063 59.764 11.9168C60.8834 12.0368 61.3831 11.6769 61.4 11.5047C61.4198 11.3339 61.009 10.8751 59.8896 10.7537C58.6643 10.621 57.6338 10.1947 56.9111 9.52134C56.1474 8.80847 55.7691 7.8514 55.8736 6.89291C56.0571 5.21027 57.744 3.66596 60.6194 3.97793C61.4353 4.06545 61.8659 3.89746 62.048 3.78877C62.1934 3.69984 62.2512 3.61514 62.2569 3.56574C62.2738 3.39493 61.8687 2.93616 60.7465 2.81476C59.9715 2.73006 59.4097 2.03554 59.4958 1.25916C59.579 0.48418 60.2722 -0.0762309 61.05 0.00846594C63.9254 0.31761 65.2467 2.18518 65.0646 3.86923C64.8811 5.5547 63.1942 7.09618 60.3159 6.78704C59.5 6.69811 59.0737 6.8675 58.8902 6.9762C58.7448 7.06372 58.6855 7.14982 58.6799 7.19782C58.6615 7.37004 59.0695 7.8274 60.1917 7.9488C63.0672 8.25935 64.3884 10.1255 64.2063 11.8096C64.0242 13.4922 62.3373 15.0365 59.4605 14.7246C58.6446 14.637 58.2154 14.8064 58.0319 14.9137C57.8851 15.0041 57.8286 15.0887 57.823 15.1367C57.8047 15.3075 58.2126 15.7663 59.3334 15.8877C60.107 15.9724 60.6702 16.6683 60.5841 17.4433C60.5446 17.8301 60.3484 18.1647 60.0675 18.3905Z" fill="#AA8DD8"/>
<path d="M110.624 35.2314C112.506 37.4297 112.185 39.6948 110.897 40.794C109.61 41.8926 107.322 41.8584 105.443 39.6602C104.71 38.8015 104.102 38.7234 103.97 38.8325C103.839 38.9459 103.822 39.5618 104.555 40.4174C106.434 42.6155 106.112 44.8807 104.826 45.9793C103.539 47.0811 101.252 47.0431 99.3713 44.8442C98.6391 43.9868 98.0289 43.9081 97.8991 44.0209C97.7687 44.1325 97.7511 44.7471 98.4834 45.6046C98.9882 46.1954 98.9203 47.0883 98.3282 47.5937C97.7341 48.0985 96.8438 48.0294 96.3365 47.4366C94.4581 45.2397 94.7764 42.9745 96.0646 41.8721C97.3514 40.7735 99.6373 40.8102 101.519 43.0103C102.253 43.8685 102.86 43.9471 102.991 43.8337C103.122 43.7234 103.141 43.1081 102.409 42.252C100.528 40.0519 100.847 37.7892 102.137 36.6875C103.424 35.5876 105.709 35.6243 107.592 37.8226C108.322 38.6793 108.933 38.7562 109.063 38.6465C109.194 38.533 109.212 37.9197 108.48 37.0622C107.972 36.4694 108.043 35.5798 108.635 35.0731C109.226 34.5683 110.117 34.6386 110.624 35.2314Z" fill="#FFCC4D"/>
<path d="M45.8115 73.4025C45.6898 73.346 45.574 73.2704 45.4677 73.1775C44.885 72.6594 44.8321 71.7679 45.3502 71.1851C49.0441 67.0283 53.939 59.9304 53.2568 57.17C53.1821 56.8582 53.0134 56.5075 52.3667 56.2647C51.1229 55.7992 50.0602 58.3858 50.0496 58.412C49.7757 59.1424 48.9603 59.5108 48.2318 59.2362C47.4959 58.9474 47.133 58.147 47.4081 57.4171C48.0962 55.5904 50.2246 52.445 53.3602 53.6227C54.7598 54.1481 55.6644 55.1394 55.999 56.4933C57.2799 61.6812 49.1116 71.2028 47.4613 73.0605C47.0374 73.5376 46.362 73.6581 45.8115 73.4025Z" fill="#77B255"/>
<path d="M76.1174 31.2348C77.2868 31.2348 78.2348 30.2868 78.2348 29.1174C78.2348 27.948 77.2868 27 76.1174 27C74.948 27 74 27.948 74 29.1174C74 30.2868 74.948 31.2348 76.1174 31.2348Z" fill="#5C913B"/>
<path d="M16.1174 4.23484C17.2868 4.23484 18.2348 3.28684 18.2348 2.11742C18.2348 0.948002 17.2868 0 16.1174 0C14.948 0 14 0.948002 14 2.11742C14 3.28684 14.948 4.23484 16.1174 4.23484Z" fill="#5C913B"/>
<path d="M128.823 83.6465C130.382 83.6465 131.646 82.3825 131.646 80.8232C131.646 79.264 130.382 78 128.823 78C127.264 78 126 79.264 126 80.8232C126 82.3825 127.264 83.6465 128.823 83.6465Z" fill="#9266CC"/>
<path d="M91.1174 85.2348C92.2868 85.2348 93.2348 84.2868 93.2348 83.1174C93.2348 81.948 92.2868 81 91.1174 81C89.948 81 89 81.948 89 83.1174C89 84.2868 89.948 85.2348 91.1174 85.2348Z" fill="#FFCC4D"/>
<path d="M31.5 33C33.433 33 35 31.433 35 29.5C35 27.567 33.433 26 31.5 26C29.567 26 28 27.567 28 29.5C28 31.433 29.567 33 31.5 33Z" fill="#FFCC4D"/>
<path d="M140.117 31.2348C141.287 31.2348 142.235 30.2868 142.235 29.1174C142.235 27.948 141.287 27 140.117 27C138.948 27 138 27.948 138 29.1174C138 30.2868 138.948 31.2348 140.117 31.2348Z" fill="#FFCC4D"/>
<path d="M2.11742 56.2348C3.28684 56.2348 4.23484 55.2868 4.23484 54.1174C4.23484 52.948 3.28684 52 2.11742 52C0.948002 52 0 52.948 0 54.1174C0 55.2868 0.948002 56.2348 2.11742 56.2348Z" fill="#AA8DD8"/>
<path opacity="0.7" d="M116.5 18C118.433 18 120 16.433 120 14.5C120 12.567 118.433 11 116.5 11C114.567 11 113 12.567 113 14.5C113 16.433 114.567 18 116.5 18Z" fill="#AA8DD8"/>
<path d="M118.117 54.2348C119.287 54.2348 120.235 53.2868 120.235 52.1174C120.235 50.948 119.287 50 118.117 50C116.948 50 116 50.948 116 52.1174C116 53.2868 116.948 54.2348 118.117 54.2348Z" fill="#5C913B"/>
</svg>
