<svg width="51" height="50" viewBox="0 0 51 50" fill="none" xmlns="http://www.w3.org/2000/svg">
<path d="M16.4131 9.7505C16.255 9.9086 16.135 10.0992 16.0347 10.3081L16.0235 10.2968L0.190779 45.9627L0.206307 45.9782C-0.0873087 46.5471 0.403933 47.7046 1.41041 48.7125C2.4169 49.719 3.57442 50.2102 4.1433 49.9166L4.15742 49.9307L39.8233 34.0966L39.812 34.0839C40.0195 33.9851 40.2101 33.8651 40.3696 33.7042C42.5745 31.4992 38.9989 24.3494 32.3855 17.7346C25.7692 11.1198 18.6194 7.54556 16.4131 9.7505Z" fill="#DD2E44"/>
<path d="M18.3526 16.1206L0.588855 45.0672L0.190779 45.9636L0.206307 45.9791C-0.0873087 46.548 0.403933 47.7055 1.41041 48.7134C1.73791 49.0409 2.07811 49.2893 2.41125 49.4996L23.9991 23.1787L18.3526 16.1206Z" fill="#EA596E"/>
<path d="M32.4844 17.6248C39.0766 24.2199 42.7369 31.2497 40.6562 33.3276C38.5769 35.4083 31.547 31.7494 24.9506 25.1572C18.3569 18.5621 14.698 11.5295 16.7773 9.45016C18.858 7.37086 25.8879 11.0298 32.4844 17.6248Z" fill="#A0041E"/>
<path d="M26.2413 18.3905C25.9604 18.6178 25.5934 18.7364 25.2052 18.694C23.9799 18.5613 22.9494 18.135 22.2281 17.4617C21.4644 16.7488 21.0875 15.7917 21.1905 14.8332C21.3712 13.1506 23.0595 11.6063 25.9378 11.9168C27.0572 12.0368 27.5569 11.6769 27.5739 11.5047C27.5936 11.3339 27.1828 10.8751 26.0634 10.7537C24.8382 10.621 23.8077 10.1947 23.0849 9.52134C22.3212 8.80847 21.9429 7.8514 22.0474 6.89291C22.2309 5.21027 23.9178 3.66596 26.7932 3.97793C27.6092 4.06545 28.0397 3.89746 28.2218 3.78877C28.3672 3.69984 28.4251 3.61514 28.4307 3.56574C28.4477 3.39493 28.0425 2.93616 26.9203 2.81476C26.1453 2.73006 25.5835 2.03554 25.6696 1.25916C25.7529 0.48418 26.446 -0.0762309 27.2238 0.00846594C30.0992 0.31761 31.4205 2.18518 31.2384 3.86923C31.0549 5.5547 29.368 7.09618 26.4897 6.78704C25.6738 6.69811 25.2475 6.8675 25.064 6.9762C24.9186 7.06372 24.8593 7.14982 24.8537 7.19782C24.8353 7.37004 25.2433 7.8274 26.3655 7.9488C29.241 8.25935 30.5622 10.1255 30.3802 11.8096C30.1981 13.4922 28.5112 15.0365 25.6343 14.7246C24.8184 14.637 24.3893 14.8064 24.2057 14.9137C24.0589 15.0041 24.0025 15.0887 23.9968 15.1367C23.9785 15.3075 24.3864 15.7663 25.5073 15.8877C26.2808 15.9724 26.8441 16.6683 26.7579 17.4433C26.7184 17.8301 26.5222 18.1647 26.2413 18.3905Z" fill="#AA8DD8"/>
<path d="M43.2799 31.4434C46.065 30.6571 47.9862 31.8993 48.4436 33.5297C48.9009 35.1587 47.91 37.2211 45.1263 38.0045C44.0393 38.3095 43.7132 38.8289 43.757 38.9941C43.805 39.1607 44.3569 39.4345 45.4411 39.1282C48.2248 38.3447 50.146 39.587 50.6033 41.216C51.0635 42.8464 50.0698 44.9059 47.2846 45.6908C46.1991 45.9957 45.8716 46.5166 45.9196 46.6817C45.9662 46.8469 46.5167 47.1208 47.6022 46.8159C48.3504 46.6055 49.1324 47.0417 49.3428 47.7913C49.5517 48.5423 49.1155 49.3215 48.3645 49.5332C45.5822 50.3167 43.6596 49.0773 43.1994 47.4454C42.7421 45.8164 43.7344 43.7569 46.521 42.972C47.6079 42.6657 47.934 42.1476 47.886 41.9811C47.8408 41.8159 47.2903 41.5406 46.2062 41.8456C43.4196 42.6304 41.4998 41.391 41.0411 39.7578C40.5823 38.1288 41.5747 36.0692 44.3598 35.283C45.4439 34.9795 45.77 34.4572 45.7248 34.2934C45.6768 34.1268 45.1277 33.853 44.0422 34.1579C43.2912 34.3696 42.5134 33.932 42.3016 33.1825C42.0913 32.4343 42.5289 31.6551 43.2799 31.4434Z" fill="#77B255"/>
<path d="M32.4675 27.6381C32.0525 27.6381 31.6431 27.456 31.3636 27.1087C30.8766 26.4989 30.9768 25.611 31.5838 25.124C31.8915 24.8769 39.2319 19.1119 49.6059 20.5955C50.378 20.7056 50.9145 21.4199 50.8044 22.192C50.6943 22.9628 49.9856 23.5048 49.2064 23.3891C40.0408 22.0876 33.4147 27.2767 33.3497 27.3289C33.0872 27.5378 32.7766 27.6381 32.4675 27.6381Z" fill="#AA8DD8"/>
<path d="M8.12304 21.7672C7.98893 21.7672 7.85201 21.7474 7.71649 21.7079C6.96975 21.4834 6.54626 20.6972 6.77071 19.9504C8.37007 14.6244 9.8198 6.12508 8.03834 3.90885C7.8393 3.65758 7.53863 3.41055 6.84976 3.46278C5.52566 3.56441 5.6513 6.358 5.65271 6.38623C5.712 7.16403 5.12759 7.8416 4.3512 7.89948C3.56211 7.94748 2.89583 7.37436 2.83795 6.59656C2.69255 4.64994 3.29814 0.900695 6.63802 0.648016C8.12868 0.535086 9.36667 1.05315 10.2405 2.14009C13.5874 6.30577 10.1896 18.3821 9.47536 20.7621C9.29185 21.3733 8.73003 21.7672 8.12304 21.7672Z" fill="#77B255"/>
<path d="M35.9963 14.7095C37.1657 14.7095 38.1138 13.7615 38.1138 12.592C38.1138 11.4226 37.1657 10.4746 35.9963 10.4746C34.8269 10.4746 33.8789 11.4226 33.8789 12.592C33.8789 13.7615 34.8269 14.7095 35.9963 14.7095Z" fill="#5C913B"/>
<path d="M2.82323 27.414C4.38246 27.414 5.64646 26.15 5.64646 24.5908C5.64646 23.0316 4.38246 21.7676 2.82323 21.7676C1.264 21.7676 0 23.0316 0 24.5908C0 26.15 1.264 27.414 2.82323 27.414Z" fill="#9266CC"/>
<path d="M45.8772 28.8247C47.0466 28.8247 47.9946 27.8767 47.9946 26.7073C47.9946 25.5378 47.0466 24.5898 45.8772 24.5898C44.7078 24.5898 43.7598 25.5378 43.7598 26.7073C43.7598 27.8767 44.7078 28.8247 45.8772 28.8247Z" fill="#5C913B"/>
<path d="M33.1721 45.7641C34.3415 45.7641 35.2895 44.8161 35.2895 43.6467C35.2895 42.4773 34.3415 41.5293 33.1721 41.5293C32.0027 41.5293 31.0547 42.4773 31.0547 43.6467C31.0547 44.8161 32.0027 45.7641 33.1721 45.7641Z" fill="#5C913B"/>
<path d="M39.5244 7.65037C41.0836 7.65037 42.3476 6.38636 42.3476 4.82714C42.3476 3.26791 41.0836 2.00391 39.5244 2.00391C37.9652 2.00391 36.7012 3.26791 36.7012 4.82714C36.7012 6.38636 37.9652 7.65037 39.5244 7.65037Z" fill="#FFCC4D"/>
<path d="M45.8772 13.2973C47.0466 13.2973 47.9946 12.3493 47.9946 11.1799C47.9946 10.0105 47.0466 9.0625 45.8772 9.0625C44.7078 9.0625 43.7598 10.0105 43.7598 11.1799C43.7598 12.3493 44.7078 13.2973 45.8772 13.2973Z" fill="#FFCC4D"/>
<path d="M41.6409 18.9438C42.8103 18.9438 43.7583 17.9958 43.7583 16.8264C43.7583 15.657 42.8103 14.709 41.6409 14.709C40.4714 14.709 39.5234 15.657 39.5234 16.8264C39.5234 17.9958 40.4714 18.9438 41.6409 18.9438Z" fill="#FFCC4D"/>
<path d="M10.5862 34.4712C11.7556 34.4712 12.7036 33.5232 12.7036 32.3538C12.7036 31.1843 11.7556 30.2363 10.5862 30.2363C9.41675 30.2363 8.46875 31.1843 8.46875 32.3538C8.46875 33.5232 9.41675 34.4712 10.5862 34.4712Z" fill="#FFCC4D"/>
</svg>
