<svg width="24" height="17" viewBox="0 0 24 17" fill="none" xmlns="http://www.w3.org/2000/svg">
<path fill-rule="evenodd" clip-rule="evenodd" d="M11.1347 1.25121C9.2078 -0.482959 6.26064 -0.405459 4.4276 1.42759C2.63513 3.22006 2.51581 6.0873 4.15323 8.0225L5.61136 9.7041L5.43381 10H1C0.447715 10 0 10.4477 0 11C0 11.5523 0.447715 12 1 12H6C6.35126 12 6.67677 11.8157 6.85749 11.5145L6.98987 11.2939L11.2445 16.2006C11.4344 16.4196 11.7101 16.5455 12 16.5455C12.2899 16.5455 12.5656 16.4196 12.7555 16.2006L19.8389 8.0316L19.8467 8.0224C19.853 8.015 19.8593 8.0075 19.8656 8H23C23.5523 8 24 7.5523 24 7C24 6.4477 23.5523 6 23 6H20.8688C21.2469 4.40284 20.8057 2.66084 19.5724 1.42759C17.7394 -0.405459 14.7922 -0.482959 12.8654 1.25121L12 2.03003L11.1347 1.25121ZM18.7709 6C19.2193 4.94695 19.0066 3.69021 18.1582 2.8418C17.0773 1.76092 15.3395 1.71522 14.2033 2.7378L12.669 4.11868C12.2887 4.46096 11.7113 4.46096 11.331 4.11868L9.79672 2.7378C8.66053 1.71522 6.92269 1.76092 5.84181 2.8418C4.78617 3.89744 4.71471 5.58524 5.67645 6.7263L6.69397 7.8997L8.14251 5.48551C8.31593 5.19647 8.62329 5.01425 8.9601 5.0008C9.2969 4.98735 9.61782 5.14448 9.81373 5.41876L11.6276 7.9582L13.2929 6.2929C13.4804 6.1054 13.7348 6 14 6H18.7709ZM8.07248 9.4895L12 14.019L17.2191 8H14.4142L12.2071 10.2071C11.9993 10.415 11.7105 10.5208 11.4175 10.4966C11.1246 10.4723 10.8571 10.3204 10.6863 10.0812L9.07278 7.8224L8.07248 9.4895Z" fill="#413D56"/>
</svg>
