<svg width="8" height="25" viewBox="0 0 8 25" fill="none" xmlns="http://www.w3.org/2000/svg">
<path fill-rule="evenodd" clip-rule="evenodd" d="M3.01187 3.43063V20.5986L1.72187 19.2966C1.63001 19.2008 1.51999 19.1242 1.39823 19.0714C1.27647 19.0185 1.1454 18.9904 1.01267 18.9887C0.87994 18.9871 0.748204 19.0118 0.625143 19.0616C0.502082 19.1113 0.390159 19.1851 0.295901 19.2786C0.201642 19.372 0.126933 19.4833 0.076132 19.606C0.0253309 19.7286 -0.000546538 19.8601 8.75073e-06 19.9928C0.00056404 20.1256 0.0275406 20.2569 0.0793659 20.3791C0.131191 20.5013 0.206828 20.612 0.301866 20.7046L3.30187 23.7316C3.39437 23.8255 3.50456 23.9 3.62607 23.951C3.74757 24.002 3.87797 24.0284 4.00974 24.0287C4.14151 24.029 4.27202 24.0031 4.39374 23.9526C4.51546 23.9022 4.62596 23.8281 4.71887 23.7346L7.71887 20.7346C7.90102 20.546 8.00182 20.2934 7.99954 20.0312C7.99726 19.769 7.89209 19.5182 7.70668 19.3328C7.52128 19.1474 7.27046 19.0422 7.00827 19.04C6.74607 19.0377 6.49347 19.1385 6.30486 19.3206L5.01187 20.6136V3.41463L6.30486 4.70763C6.49347 4.88979 6.74607 4.99058 7.00827 4.9883C7.27046 4.98602 7.52128 4.88086 7.70668 4.69545C7.89209 4.51004 7.99726 4.25923 7.99954 3.99703C8.00182 3.73483 7.90102 3.48223 7.71887 3.29363L4.71887 0.293629C4.62589 0.200309 4.51537 0.126317 4.39366 0.0759214C4.27195 0.0255258 4.14147 -0.000276653 4.00974 2.23687e-06C3.87801 0.000281126 3.74764 0.026636 3.62615 0.0775464C3.50465 0.128457 3.39444 0.202916 3.30187 0.296629L0.301866 3.32363C0.129695 3.51471 0.0376851 3.76473 0.0449192 4.02184C0.0521533 4.27894 0.158076 4.5234 0.340718 4.7045C0.523361 4.8856 0.768705 4.98944 1.02586 4.99449C1.28302 4.99954 1.53225 4.90542 1.72187 4.73163L3.01187 3.43063Z" fill="#413D56"/>
</svg>
