<svg width="26" height="24" viewBox="0 0 26 24" fill="none" xmlns="http://www.w3.org/2000/svg">
<path d="M8.0053 23.9988C6.93892 23.9876 5.88516 23.7129 4.90612 23.1908C3.92709 22.6687 3.0426 21.9099 2.30479 20.959C0.806827 19.0184 -0.0197972 16.4333 0.000360175 13.7524C0.0205175 11.0715 0.88587 8.50584 2.41276 6.59991L7.42229 0.400297C7.51992 0.270517 7.63871 0.167768 7.77084 0.0988242C7.90297 0.0298803 8.04544 -0.00369185 8.18884 0.000321788C8.33245 0.00278736 8.47422 0.0406123 8.60584 0.111582C8.73746 0.182551 8.8563 0.285238 8.95539 0.41363L13.8786 6.70657C15.3779 8.64546 16.2065 11.2296 16.1884 13.9105C16.1702 16.5914 15.3068 19.158 13.7814 21.0657C13.0301 22.0129 12.1306 22.7614 11.1376 23.2656C10.1446 23.7699 9.07885 24.0194 8.0053 23.9988ZM8.14565 3.24012L3.94585 8.46646C2.81182 9.88263 2.16955 11.789 2.15543 13.7805C2.14132 15.7721 2.75649 17.692 3.87027 19.1325C4.40811 19.8176 5.05031 20.3646 5.75995 20.7422C6.46959 21.1197 7.23267 21.3203 8.0053 21.3323C8.7877 21.3403 9.56346 21.1545 10.2867 20.7858C11.0099 20.4171 11.6659 19.873 12.2159 19.1858C13.3535 17.7712 13.9973 15.8627 14.0095 13.8691C14.0216 11.8755 13.401 9.9553 12.2807 8.51979L8.14565 3.24012Z" fill="#413D56"/>
<path d="M21.0403 19.2725C20.394 19.2657 19.7553 19.0992 19.162 18.7828C18.5686 18.4664 18.0325 18.0065 17.5854 17.4302C16.6775 16.254 16.1765 14.6873 16.1887 13.0625C16.2009 11.4376 16.7254 9.88263 17.6508 8.7275L20.6869 4.97007C20.7461 4.89141 20.8181 4.82914 20.8982 4.78735C20.9783 4.74557 21.0646 4.72522 21.1515 4.72765C21.2386 4.72915 21.3245 4.75207 21.4043 4.79509C21.484 4.8381 21.5561 4.90033 21.6161 4.97815L24.5999 8.79214C25.5087 9.96725 26.0108 11.5334 25.9998 13.1582C25.9888 14.7831 25.4655 16.3386 24.541 17.4948C24.0857 18.0689 23.5405 18.5226 22.9387 18.8282C22.3368 19.1338 21.6909 19.285 21.0403 19.2725ZM21.1253 6.69121L18.58 9.85876C17.8927 10.7171 17.5034 11.8724 17.4948 13.0795C17.4863 14.2865 17.8591 15.4501 18.5341 16.3232C18.8601 16.7384 19.2493 17.0699 19.6794 17.2987C20.1095 17.5276 20.572 17.6491 21.0403 17.6564C21.5145 17.6613 21.9846 17.5487 22.423 17.3252C22.8613 17.1017 23.2589 16.772 23.5922 16.3555C24.2817 15.4981 24.6719 14.3414 24.6793 13.1332C24.6866 11.9249 24.3105 10.7611 23.6315 9.89109L21.1253 6.69121Z" fill="#413D56"/>
<path d="M8.52799 17.6287C8.01437 17.6246 7.50682 17.5237 7.03526 17.3319C6.56371 17.1401 6.13769 16.8613 5.78232 16.512C5.06082 15.7991 4.66267 14.8495 4.67238 13.8646C4.68209 12.8797 5.09889 11.9372 5.83432 11.2371L8.24719 8.95955C8.29421 8.91188 8.35142 8.87413 8.41507 8.8488C8.47871 8.82348 8.54733 8.81114 8.6164 8.81262C8.68557 8.81352 8.75385 8.82742 8.81725 8.85349C8.88064 8.87956 8.93788 8.91728 8.98561 8.96445L11.3569 11.2762C12.0791 11.9885 12.4781 12.9378 12.4694 13.9227C12.4607 14.9075 12.0448 15.8504 11.3101 16.5512C10.9482 16.8992 10.5149 17.1742 10.0367 17.3594C9.55838 17.5446 9.04507 17.6363 8.52799 17.6287ZM8.5956 10.0028L6.57274 11.9228C6.02654 12.443 5.71718 13.1433 5.71038 13.8749C5.70359 14.6066 5.99988 15.3119 6.53634 15.841C6.79539 16.0927 7.10471 16.2937 7.44651 16.4324C7.78831 16.5711 8.15585 16.6447 8.52799 16.6492C8.90484 16.6521 9.27849 16.5838 9.62683 16.4484C9.97518 16.313 10.2911 16.1131 10.556 15.8606C11.104 15.341 11.4141 14.6398 11.4199 13.9075C11.4258 13.1751 11.1269 12.4697 10.5872 11.9423L8.5956 10.0028Z" fill="#413D56"/>
<path d="M21.0257 15.9663C20.7144 15.9638 20.4068 15.9026 20.121 15.7863C19.8352 15.6701 19.577 15.5012 19.3616 15.2894C18.9244 14.8574 18.6831 14.2818 18.6889 13.6849C18.6948 13.088 18.9474 12.5168 19.3932 12.0924L20.8555 10.7121C20.884 10.6832 20.9187 10.6603 20.9573 10.645C20.9959 10.6296 21.0374 10.6221 21.0793 10.623C21.1212 10.6236 21.1626 10.632 21.201 10.6478C21.2395 10.6636 21.2742 10.6865 21.3031 10.715L22.7402 12.1162C23.1779 12.5478 23.4198 13.1232 23.4145 13.7201C23.4092 14.317 23.1572 14.8885 22.7119 15.3132C22.4926 15.5241 22.23 15.6907 21.9401 15.803C21.6502 15.9153 21.3391 15.9708 21.0257 15.9663ZM21.0667 11.3444L19.8407 12.508C19.5097 12.8233 19.3222 13.2477 19.318 13.6912C19.3139 14.1346 19.4935 14.562 19.8186 14.8828C19.9756 15.0353 20.1631 15.1571 20.3703 15.2412C20.5774 15.3252 20.8002 15.3699 21.0257 15.3726C21.2541 15.3743 21.4806 15.333 21.6917 15.2509C21.9028 15.1688 22.0943 15.0477 22.2549 14.8946C22.587 14.5797 22.7749 14.1548 22.7785 13.7109C22.782 13.267 22.6008 12.8395 22.2738 12.5199L21.0667 11.3444Z" fill="#413D56"/>
</svg>
