<svg width="22" height="24" viewBox="0 0 22 24" fill="none" xmlns="http://www.w3.org/2000/svg">
<path d="M20.4396 8.02667C20.3324 6.96 19.4206 6.13333 18.3211 6.13333H16.3634V5.65333C16.3634 2.53333 14.0572 0 11.0536 0H10.9464C7.94285 0 5.63657 2.53333 5.63657 5.65333V6.13333H3.67892C2.57942 6.13333 1.69446 6.96 1.56037 8.02667L0.00497703 22.8C-0.0218401 23.0933 0.0586113 23.4133 0.273148 23.6267C0.487685 23.8667 0.782674 24 1.07766 24H20.9223C21.2173 24 21.5123 23.8667 21.7269 23.6533C21.9414 23.44 22.0218 23.12 21.995 22.8267L20.4396 8.02667ZM7.78194 5.65333C7.78194 3.70667 9.14962 2.13333 10.9464 2.13333H11.0536C12.8504 2.13333 14.2181 3.70667 14.2181 5.65333V6.13333H7.78194V5.65333ZM2.25762 21.8667L3.67892 8.26667H18.2674L19.6888 21.8667H2.25762Z" fill="#413D56"/>
</svg>
